{"title":"Real Time with Bill Maher - 2013-07-26","uid":8745484,"size":290436781,"categoryP":"video","categoryS":"tv_shows","magnet":"?xt=urn:btih:f7c36a0935c45cb509d40682f0db6b5273b69d7c&amp;dn=Real+Time+with+Bill+Maher+-+2013-07-26&amp;tr=udp%3A%2F%2Ftracker.openbittorrent.com%3A80&amp;tr=udp%3A%2F%2Fopen.demonii.com%3A1337&amp;tr=udp%3A%2F%2Ftracker.coppersurfer.tk%3A6969&amp;tr=udp%3A%2F%2Fexodus.desync.com%3A6969","seeders":1,"leechers":0,"uploader":"gergmorg","files":1,"time":1374911681,"description":"Real Time With Bill Maher\nS11, E24\n(First Aired: Jul. 26, 2013)\nWomen's rights activist Sarah Slamen; theologian Jim Wallis; author Reza Aslan; former Rep. Bob Ney (R-Ohio); former Gov. Eliot Spitzer (D-N.Y.).\n\nGeneral\nComplete name                    : D:real time w bill mahers11 2013 starts janrtwbm-2013-07-26-hdtv.mp4\nFormat                           : MPEG-4\nFormat profile                   : Base Media / Version 2\nCodec ID                         : mp42\nFile size                        : 277 MiB\nDuration                         : 56mn 25s\nOverall bit rate                 : 686 Kbps\nEncoded date                     : UTC 2013-07-27 05:04:05\nTagged date                      : UTC 2013-07-27 05:15:46\nWriting application              : HandBrake 0.9.8 2012071700\n\nVideo\nID                               : 1\nFormat                           : AVC\nFormat/Info                      : Advanced Video Codec\nFormat profile                   : &lt;a class=&quot;__cf_email__&quot; href=&quot;/cdn-cgi/l/email-protection&quot; data-cfemail=&quot;feb39f9790beb2cdd0ce&quot;&gt;[email&amp;#160;protected]&lt;/a&gt;&lt;script cf-hash='f9e31' type=&quot;text/javascript&quot;&gt;\n/* &lt;![CDATA[ */!function(){try{var t=&quot;currentScript&quot;in document?document.currentScript:function(){for(var t=document.getElementsByTagName(&quot;script&quot;),e=t.length;e--;)if(t[e].getAttribute(&quot;cf-hash&quot;))return t[e]}();if(t&amp;&amp;t.previousSibling){var e,r,n,i,c=t.previousSibling,a=c.getAttribute(&quot;data-cfemail&quot;);if(a){for(e=&quot;&quot;,r=parseInt(a.substr(0,2),16),n=2;a.length-n;n+=2)i=parseInt(a.substr(n,2),16)^r,e+=String.fromCharCode(i);e=document.createTextNode(e),c.parentNode.replaceChild(e,c)}}}catch(u){}}();/* ]]&gt; */&lt;/script&gt;\nFormat settings, CABAC           : Yes\nFormat settings, ReFrames        : 4 frames\nCodec ID                         : avc1\nCodec ID/Info                    : Advanced Video Coding\nDuration                         : 56mn 25s\nBit rate mode                    : Variable\nBit rate                         : 491 Kbps\nWidth                            : 720 pixels\nHeight                           : 400 pixels\nDisplay aspect ratio             : 16:9\nFrame rate mode                  : Variable\nFrame rate                       : 29.970 fps\nMinimum frame rate               : 29.960 fps\nMaximum frame rate               : 29.980 fps\nColor space                      : YUV\nChroma subsampling               : 4:2:0\nBit depth                        : 8 bits\nScan type                        : Progressive\nBits/(Pixel*Frame)               : 0.057\nStream size                      : 198 MiB (72%)\nWriting library                  : x264 core 120\nEncoding settings                : cabac=1 // deblock=1:0:0 / analyse=0x1:0x111 / me=hex / subme=2 / psy=1 / psy_rd=1.00:0.00 // me_range=16 / chroma_me=1 / trellis=0 / 8x8dct=0 / cqm=0 / deadzone=21,11 / fast_pskip=1 / chroma_qp_offset=0 / threads=12 / sliced_threads=0 / nr=0 / decimate=1 / interlaced=0 / bluray_compat=0 / constrained_intra=0 / bframes=3 / b_pyramid=2 / b_adapt=1 / b_bias=0 / direct=1 / weightb=1 / open_gop=0 / weightp=1 / keyint=300 / keyint_min=30 / scenecut=40 / intra_refresh=0 / rc_lookahead=10 / rc=crf / mbtree=1 / crf=20.0 / qcomp=0.60 / qpmin=3 / qpmax=69 / qpstep=4 / ip_ratio=1.40 / aq=1:1.00\nEncoded date                     : UTC 2013-07-27 05:04:05\nTagged date                      : UTC 2013-07-27 05:15:46\nColor primaries                  : BT.709-5, BT.1361, IEC 61966-2-4, SMPTE RP177\nTransfer characteristics         : BT.709-5, BT.1361\nMatrix coefficients              : BT.709-5, BT.1361, IEC 61966-2-4 709, SMPTE RP177\n\nAudio\nID                               : 2\nFormat                           : AC-3\nFormat/Info                      : Audio Coding 3\nFormat profile                   : Dolby Digital\nMode extension                   : CM (complete main)\nCodec ID                         : ac-3\nDuration                         : 56mn 25s\nBit rate mode                    : Constant\nBit rate                         : 192 Kbps\nChannel(s)                       : 2 channels\nChannel positions                : Front: L R\nSampling rate                    : 48.0 KHz\nBit depth                        : 16 bits\nCompression mode                 : Lossy\nStream size                      : 77.5 MiB (28%)\nLanguage                         : English\nEncoded date                     : UTC 2013-07-27 05:04:05\nTagged date                      : UTC 2013-07-27 05:15:46\n","torrent":{"xt":"urn:btih:f7c36a0935c45cb509d40682f0db6b5273b69d7c","amp;dn":"Real+Time+with+Bill+Maher+-+2013-07-26","amp;tr":["udp%3A%2F%2Ftracker.openbittorrent.com%3A80","udp%3A%2F%2Fopen.demonii.com%3A1337","udp%3A%2F%2Ftracker.coppersurfer.tk%3A6969","udp%3A%2F%2Fexodus.desync.com%3A6969"],"infoHash":"f7c36a0935c45cb509d40682f0db6b5273b69d7c","infoHashBuffer":{"type":"Buffer","data":[247,195,106,9,53,196,92,181,9,212,6,130,240,219,107,82,115,182,157,124]},"announce":[],"urlList":[]}}